<svg xmlns="http://www.w3.org/2000/svg" viewBox="0 0 430 430">
<defs><linearGradient id="g" x1="0" y1="0" x2="1" y2="1"><stop stop-color="#87906f"/><stop offset="1" stop-color="#4f5940"/></linearGradient><filter id="s"><feDropShadow dx="0" dy="14" stdDeviation="12" flood-opacity=".18"/></filter></defs>
<g filter="url(#s)">
 <path d="M112 110c55-49 151-49 206 0l-23 44H135z" fill="#677052"/>
 <path d="M94 148h242l-25 226H119z" fill="url(#g)"/>
 <path d="M104 150c47 34 177 36 222 0" fill="none" stroke="#c9b98b" stroke-width="7"/>
 <g fill="none" stroke="#aeb79a" stroke-width="3" opacity=".58"><path d="M140 190c52 42 94 86 126 135M287 181c-46 48-78 94-99 144"/><path d="M153 210l-32 2m51 18-31 14m103-41 36-4m-50 29 33 16"/></g>
 <path d="M104 140C67 123 51 95 45 55m281 85c37-17 53-45 59-85" fill="none" stroke="#a69b6c" stroke-width="8" stroke-linecap="round"/>
 <circle cx="215" cy="239" r="58" fill="#a69b6c"/>
 <circle cx="215" cy="239" r="46" fill="none" stroke="#eee5c9" stroke-width="4"/>
 <path d="M180 203h28v21h-18v21h18v21h-28m70-63h-28v21h18v21h-18v21h28M200 266v28m30-28v28m-50 0h70M208 224h14m-14 42h14" fill="none" stroke="#4f5940" stroke-width="7"/>
</g>
</svg>
