<svg xmlns="http://www.w3.org/2000/svg" viewBox="0 0 780 500">
<defs>
 <linearGradient id="sky" x1="0" y1="0" x2="0" y2="1"><stop stop-color="#f8f4ea"/><stop offset="1" stop-color="#dfe5d5"/></linearGradient>
 <filter id="blur"><feGaussianBlur stdDeviation="1.2"/></filter>
</defs>
<rect width="780" height="500" rx="42" fill="url(#sky)"/>
<g opacity=".38" filter="url(#blur)" fill="#839070">
 <circle cx="105" cy="173" r="86"/><circle cx="665" cy="160" r="105"/><circle cx="85" cy="350" r="112"/><circle cx="690" cy="350" r="125"/>
</g>
<g fill="#fbf8f2" stroke="#8b9277" stroke-width="4">
 <path d="M208 410V190h364v220z"/>
 <path d="M175 205h430l-58-70H233z"/>
 <path d="M275 410V230h68v180M437 410V230h68v180"/>
 <path d="M357 410V245h66v165"/>
 <path d="M208 285h364M208 338h364"/>
</g>
<path d="M90 433c134-39 224-33 294 0 88-43 179-41 306 0" fill="none" stroke="#98a283" stroke-width="18" stroke-linecap="round" opacity=".52"/>
<g fill="#d7b9b4" opacity=".85"><circle cx="105" cy="362" r="16"/><circle cx="145" cy="382" r="12"/><circle cx="650" cy="369" r="16"/><circle cx="694" cy="388" r="12"/></g>
</svg>
